<?xml version="1.0" standalone="no"?>
<!DOCTYPE svg PUBLIC "-//W3C//DTD SVG 20010904//EN"
 "http://www.w3.org/TR/2001/REC-SVG-20010904/DTD/svg10.dtd">
<svg version="1.0" xmlns="http://www.w3.org/2000/svg"
 width="260.000000pt" height="260.000000pt" viewBox="0 0 260.000000 260.000000"
 preserveAspectRatio="xMidYMid meet">
<metadata>
Created by potrace 1.11, written by Peter Selinger 2001-2013
</metadata>
<g transform="translate(0.000000,260.000000) scale(0.100000,-0.100000)"
fill="#000000" stroke="none">
<path d="M1179 2076 c-82 -23 -187 -86 -238 -142 -51 -56 -121 -179 -121 -214
0 -17 -4 -19 -27 -13 -33 8 -116 8 -156 0 -51 -11 -132 -54 -169 -91 -38 -37
-43 -34 -29 14 6 22 0 30 -52 69 -41 30 -62 39 -67 31 -4 -6 -15 -51 -25 -98
-10 -48 -19 -88 -20 -90 -1 -1 -14 2 -29 8 -21 8 -30 6 -46 -10 -10 -10 -37
-28 -60 -40 -44 -23 -93 -82 -111 -137 -16 -49 -5 -135 22 -181 33 -55 77 -88
141 -109 64 -20 65 -26 26 -91 -17 -27 -17 -33 -5 -38 10 -3 18 -25 22 -57 4
-29 9 -65 12 -82 2 -16 6 -52 8 -80 1 -27 5 -57 8 -65 4 -8 8 -33 9 -55 l3
-40 111 -3 c129 -3 118 -13 130 121 4 43 11 80 15 83 5 3 9 -5 9 -17 0 -12 5
-50 11 -83 l10 -61 74 -40 75 -40 85 43 85 42 1 42 c3 89 9 100 64 113 28 7
73 21 101 32 l51 20 54 -25 c65 -29 179 -40 233 -22 21 6 40 9 43 6 3 -3 5
-55 4 -115 -1 -123 -3 -120 82 -112 l37 3 0 119 c0 110 5 131 24 112 4 -5 11
-8 14 -9 4 0 21 -6 37 -13 17 -6 37 -14 45 -18 49 -19 188 -12 251 12 13 5 30
-19 80 -110 l63 -116 15 28 c9 15 52 98 96 183 l80 154 75 16 c66 14 143 51
175 84 47 48 108 166 86 166 -4 0 -14 -19 -21 -41 -23 -69 -72 -122 -147 -161
-60 -31 -153 -57 -153 -43 0 3 14 32 30 65 17 33 30 63 30 68 0 4 -27 8 -59 8
l-60 0 -26 -63 c-15 -34 -30 -62 -33 -61 -4 1 -33 -24 -66 -55 l-59 -58 -49
108 c-27 59 -53 112 -59 118 -5 5 -38 10 -73 11 -50 1 -63 -2 -59 -12 3 -8 36
-71 74 -141 50 -90 66 -130 59 -137 -7 -7 -59 -11 -133 -11 -112 0 -127 2
-180 27 l-58 27 3 72 3 72 78 -1 77 -1 0 52 0 53 -77 -1 -78 0 0 148 0 149 29
25 c22 19 37 23 63 20 19 -3 37 -8 40 -11 6 -5 52 61 53 75 0 14 -62 31 -111
31 -63 -1 -106 -17 -138 -51 -42 -47 -53 -87 -57 -230 -3 -75 -6 -141 -8 -147
-3 -6 -20 -10 -39 -9 -33 3 -35 1 -39 -28 -7 -66 -1 -77 45 -77 l42 0 -3 -75
c-4 -75 -4 -76 -37 -89 -66 -28 -192 -12 -269 35 -22 13 -33 15 -43 7 -7 -6
-13 -7 -13 -3 0 4 -6 2 -14 -4 -16 -14 -123 -51 -146 -51 -14 0 -16 7 -9 56 7
54 -4 114 -21 114 -4 0 -10 9 -13 20 -3 11 -14 20 -25 20 -11 0 -27 12 -36 26
-14 20 -24 24 -48 22 -29 -3 -33 0 -42 37 -15 56 -23 65 -57 65 -25 0 -33 -6
-46 -37 -12 -29 -12 -42 -4 -56 16 -25 5 -38 -23 -27 -13 5 -26 6 -29 4 -3 -3
-24 15 -47 40 -23 25 -45 45 -48 44 -4 0 -19 0 -34 1 -27 1 -28 3 -28 50 0 28
-4 53 -10 56 -6 4 -10 -13 -10 -44 0 -41 -3 -51 -21 -56 -11 -4 -23 -4 -26 -1
-3 3 -12 -1 -20 -9 -44 -45 -134 -23 -205 48 -55 55 -69 82 -75 147 -5 66 37
145 102 188 35 24 51 30 54 20 6 -19 22 -28 51 -28 30 0 50 17 50 42 0 21 33
24 75 8 38 -15 26 -36 -18 -32 -32 3 -38 0 -49 -23 -11 -24 -10 -29 11 -46 13
-11 29 -19 37 -19 24 0 51 35 58 76 13 67 79 156 91 121 8 -23 55 -216 55
-225 0 -5 -13 -15 -29 -21 -38 -16 -59 -54 -41 -76 18 -22 43 -19 68 8 27 29
27 30 -2 150 l-24 99 27 -7 c39 -9 60 -36 70 -85 l9 -45 1 41 c1 47 -21 81
-72 113 -27 17 -57 56 -57 76 0 2 15 12 33 23 48 30 123 52 175 53 43 0 55 -1
101 -13 9 -2 17 8 21 29 16 71 95 192 163 247 206 167 500 149 678 -42 33 -35
72 -88 86 -117 19 -38 32 -53 47 -53 125 -2 286 -104 356 -227 l30 -52 67 3
c39 1 87 -5 113 -13 46 -15 140 -71 140 -83 0 -3 8 -15 18 -26 27 -28 54 -104
54 -146 -1 -21 3 -38 7 -38 15 0 3 86 -19 138 -47 109 -175 185 -309 185 l-68
0 -23 44 c-13 24 -55 73 -92 108 -70 64 -136 98 -216 111 -63 10 -78 21 -107
78 -51 102 -156 187 -282 231 -74 26 -220 32 -294 11z m-799 -415 c22 -15 37
-31 33 -34 -6 -7 -82 44 -83 56 0 12 8 8 50 -22z m-10 -37 c34 -23 39 -30 33
-53 -9 -38 -12 -41 -36 -37 -12 3 -33 5 -46 5 -21 1 -23 4 -17 39 9 48 16 72
22 72 2 0 22 -12 44 -26z m315 -539 c1 -11 4 -26 9 -33 12 -19 3 -23 -33 -16
-27 6 -32 10 -27 28 3 12 6 27 6 34 0 23 45 10 45 -13z m-305 -53 l0 -48 -65
-1 c-53 -2 -65 1 -65 14 0 25 70 83 102 83 27 0 28 -2 28 -48z m111 12 c15
-14 29 -34 32 -44 4 -17 -2 -19 -59 -18 l-64 1 0 50 0 50 32 -7 c18 -3 44 -18
59 -32z m219 -50 c0 -7 -7 -17 -16 -22 -9 -5 -15 -13 -15 -18 1 -5 -3 -9 -9
-9 -5 0 -9 3 -7 6 1 4 -6 16 -16 26 -9 11 -14 22 -11 26 12 12 74 4 74 -9z
m75 6 c8 -13 -14 -42 -25 -35 -5 3 -10 0 -12 -7 -2 -6 -9 -8 -16 -4 -8 5 -5
14 10 31 24 27 33 31 43 15z m-187 -16 c21 -6 32 -34 12 -34 -5 0 -10 -7 -10
-15 0 -29 -27 -15 -37 20 -12 38 -9 40 35 29z m241 -34 c-13 -9 -39 -2 -39 10
0 4 12 5 26 2 17 -3 22 -7 13 -12z m-313 -32 c-3 -13 -6 -35 -6 -49 l0 -25
-130 -3 -130 -2 0 28 c0 15 -3 38 -6 51 l-6 22 142 0 142 0 -6 -22z m105 -1
c-10 -9 -11 -8 -5 6 3 10 9 15 12 12 3 -3 0 -11 -7 -18z m143 12 c-7 -12 -54
-16 -63 -5 -6 8 2 11 29 11 21 1 37 -2 34 -6z m91 -25 c0 -12 -6 -18 -16 -16
-10 1 -19 -7 -23 -20 l-5 -23 -22 22 c-26 26 -19 58 10 48 11 -3 22 -1 26 5
10 17 30 6 30 -16z m1247 -78 c-40 -89 -49 -94 -67 -38 -5 18 3 32 47 76 29
29 54 52 56 51 1 -1 -15 -41 -36 -89z m-1505 57 c3 -8 3 -16 1 -18 -8 -8 -69
26 -63 34 7 13 56 0 62 -16z m93 7 c0 -11 5 -20 10 -20 6 0 10 -7 10 -16 0
-11 -6 -13 -19 -9 -11 3 -22 1 -26 -5 -13 -21 -23 -9 -23 30 -1 36 2 40 24 40
17 0 24 -5 24 -20z m64 -31 c-3 -5 -9 -9 -13 -9 -11 0 -21 37 -13 45 9 8 33
-26 26 -36z m-198 -7 c18 -12 24 -52 8 -52 -12 0 -34 37 -34 56 0 6 14 5 26
-4z m311 -39 c-4 -27 -9 -78 -13 -115 -6 -59 -25 -101 -39 -87 -7 8 18 224 28
237 20 26 30 12 24 -35z m-129 7 c-21 -12 -44 -17 -54 -13 -13 5 -6 10 27 18
64 18 69 17 27 -5z m-239 -38 c-4 -26 -8 -53 -8 -59 -1 -10 -30 -13 -110 -13
l-109 0 -7 43 c-4 23 -9 50 -11 60 -3 16 7 18 125 16 l128 -1 -8 -46z m143
-84 c2 -62 2 -115 1 -117 -2 -3 -10 2 -18 10 -9 9 -16 50 -20 127 -6 110 -5
113 14 103 17 -10 20 -24 23 -123z m164 90 c-2 -24 -8 -78 -11 -120 -5 -55
-12 -78 -22 -83 -13 -5 -15 10 -11 106 4 94 7 114 23 125 26 19 27 19 21 -28z
m-226 -32 c0 -13 3 -51 7 -86 9 -89 -12 -71 -27 23 -6 39 -14 80 -17 90 -4 16
-2 17 16 8 12 -7 21 -22 21 -35z m108 -84 c3 -76 0 -112 -7 -112 -6 0 -12 17
-12 38 -1 20 -3 72 -5 115 -2 58 0 77 9 74 8 -2 13 -39 15 -115z m51 20 c2
-100 -3 -132 -21 -132 -9 0 -10 207 -1 223 14 24 21 -4 22 -91z m-255 -39 c-3
-27 -7 -53 -9 -59 -2 -6 -39 -11 -94 -13 -101 -2 -96 -5 -105 72 l-6 47 110 0
110 0 -6 -47z"/>
<path d="M592 1188 c-18 -18 -15 -36 7 -48 15 -7 23 -6 35 6 9 8 16 19 16 23
0 11 -23 31 -35 31 -6 0 -16 -5 -23 -12z m28 -18 c0 -5 -5 -10 -11 -10 -5 0
-7 5 -4 10 3 6 8 10 11 10 2 0 4 -4 4 -10z"/>
<path d="M715 1174 c-34 -34 -2 -79 49 -68 39 8 56 21 56 44 0 10 -6 22 -12
27 -20 16 -76 13 -93 -3z m80 -25 c0 -8 -8 -13 -17 -11 -9 1 -19 -2 -23 -8 -5
-8 -11 -7 -21 1 -20 16 -2 35 33 33 17 0 28 -6 28 -15z"/>
<path d="M845 1141 c-3 -5 -1 -12 5 -16 5 -3 10 1 10 9 0 18 -6 21 -15 7z"/>
<path d="M550 1110 c0 -5 5 -10 10 -10 6 0 10 5 10 10 0 6 -4 10 -10 10 -5 0
-10 -4 -10 -10z"/>
<path d="M777 1094 c-28 -28 39 -92 75 -73 18 10 25 53 10 63 -15 9 -78 17
-85 10z m33 -24 c0 -5 -4 -10 -10 -10 -5 0 -10 5 -10 10 0 6 5 10 10 10 6 0
10 -4 10 -10z m40 -15 c0 -8 -7 -15 -15 -15 -16 0 -20 12 -8 23 11 12 23 8 23
-8z"/>
</g>
</svg>
